<?xml version="1.0" encoding="UTF-8"?>
<svg id="Layer_2" data-name="Layer 2" xmlns="http://www.w3.org/2000/svg" viewBox="0 0 22.36 9.03">
  <defs>
    <style>
      .cls-1 {
        fill: #c3baba;
      }
    </style>
  </defs>
  <g id="Layer_1-2" data-name="Layer 1">
    <g>
      <polygon class="cls-1" points="2.32 2.98 3.1 4.92 4.34 5.52 1.8 6.97 1.8 .63 0 0 0 8.02 1.81 9.02 6.31 6.43 6.31 4.38 2.32 2.98"/>
      <path class="cls-1" d="M11.16,4.34s.02-.02.03-.02c.08-.04.18-.07.27-.12.76-.44.91-1.59.16-2.11-.68-.48-1.76-.22-2.55-.29l-.04.02v5.4h1.76c1-.07,1.76-.85,1.55-1.88-.12-.58-.61-.94-1.18-.99ZM9.66,2.38c.57.03,1.62-.17,1.76.62.06.36-.06.73-.36.94-.4.27-.93.18-1.4.2v-1.75ZM11.52,6.25c-.41.55-1.26.37-1.86.4v-1.95c.56.02,1.44-.12,1.85.37.26.31.24.86,0,1.18Z"/>
      <path class="cls-1" d="M22.36,3.39h-.62v.53s-.02,0-.03-.02c-.05-.06-.09-.14-.15-.21-.53-.6-1.6-.49-2.14.04-.88.85-.88,3.11.47,3.52.54.16,1.21.07,1.61-.36.09-.09.14-.2.22-.29,0,0,0-.02.02-.01,0,.46.03.95-.22,1.37-.2.33-.53.49-.9.54-.47.06-.96-.02-1.37-.25l-.17.53c.52.25,1.13.31,1.7.23,1.1-.15,1.53-.93,1.57-1.98v-3.64ZM20.92,6.74c-.72.21-1.32-.25-1.45-.96-.15-.82.12-1.91,1.1-1.97.63-.04,1.12.43,1.16,1.05.04.71,0,1.64-.82,1.88Z"/>
      <path class="cls-1" d="M17.06,3.33c-.52-.12-1.06.02-1.42.42-.07.08-.13.19-.2.27v-.63h-.62v3.83h.62v-2.29c.04-.69.59-1.25,1.31-1.09.53.12.62.69.64,1.16v2.22s.62,0,.62,0v-2.35c0-.67-.22-1.37-.95-1.54Z"/>
      <rect class="cls-1" x="13.17" y="3.39" width=".62" height="3.83"/>
      <path class="cls-1" d="M13.43,1.69c-.48.07-.43.85.12.8.52-.05.46-.88-.12-.8Z"/>
    </g>
  </g>
</svg>