<?xml version="1.0" encoding="UTF-8"?>
<svg id="Layer_2" data-name="Layer 2" xmlns="http://www.w3.org/2000/svg" viewBox="0 0 42.11 8.18">
  <defs>
    <style>
      .cls-1 {
        fill: #c3baba;
      }
    </style>
  </defs>
  <g id="Layer_1-2" data-name="Layer 1">
    <g>
      <path class="cls-1" d="M21.51,3.42c.88-1.2,2.73-.9,3.34.41.46.98.41,2.81-.31,3.65s-2.25.95-2.99.04c-.06-.07-.06-.18-.13-.2v.7h-1.54V.2s.07-.07.11-.07l1.42-.12s.1.04.1.06v3.36ZM22.21,3.96c-.41.08-.66.55-.69.93-.06.67-.11,1.87.77,1.99.73.1,1.18-.32,1.25-1.03.09-.96-.04-2.16-1.33-1.9Z"/>
      <path class="cls-1" d="M38.81.04v5.22l1.54-2.46h1.71l-1.62,2.57,1.66,2.65h-1.65c-.54-.74-.96-1.59-1.49-2.33-.04-.06-.08-.15-.16-.17v2.5h-1.58V.18l1.58-.13Z"/>
      <path class="cls-1" d="M7.77,7.32c-.52.82-1.52,1.03-2.4.67-1.39-.57-1.52-2.8-1.06-4.01.5-1.29,2.05-1.73,3.13-.87l.33.44v-.75h1.49v5.22h-1.49v-.7ZM6.44,3.96c-.45.08-.69.51-.73.93-.09.92-.06,2.17,1.2,1.99.47-.06.73-.5.77-.94.09-.94.05-2.2-1.24-1.98Z"/>
      <path class="cls-1" d="M27.92,2.69c2.19-.2,3.26,1.31,2.95,3.38-.43,2.81-4.72,2.81-5.16.04-.27-1.68.36-3.24,2.22-3.42ZM28,3.96c-.44.07-.7.51-.74.93-.09.98-.04,2.21,1.29,1.99.45-.08.7-.56.74-.97.08-.97.02-2.16-1.29-1.94Z"/>
      <path class="cls-1" d="M33.67,2.69c2.19-.2,3.26,1.31,2.95,3.38-.43,2.8-4.7,2.82-5.16.04-.28-1.68.38-3.25,2.22-3.42ZM33.75,3.96c-.44.07-.69.52-.73.93-.06.63-.09,1.84.73,1.98.7.12,1.21-.22,1.28-.93.1-.98.04-2.21-1.28-1.98Z"/>
      <path class="cls-1" d="M19.23,5.97h-3.29c-.05,1.54,1.98.99,2.9.75.03.16.34,1.03.24,1.1-.14.1-.91.26-1.11.29-2.53.36-3.85-.59-3.66-3.21.13-1.8,1.76-2.52,3.39-2.11.75.19,1.53,1.01,1.53,1.81v1.38ZM17.83,4.91c.04-.68-.26-1.17-.99-1.14s-.93.51-.94,1.14h1.93Z"/>
      <path class="cls-1" d="M4,.04v1.23h-.77c-.18,0-.55.22-.55.42v1.12h1.32l-.13,1.27h-1.19v3.95h-1.58v-3.88s-.06-.07-.07-.07H0v-1.27h1.03s.06-.07.07-.11c.09-.48-.08-1,.08-1.54C1.55-.13,2.91-.04,4,.04Z"/>
      <path class="cls-1" d="M13.79,4.12c-.65-.17-1.61-.44-2.08.22-.33.47-.33,1.61-.03,2.09.43.7,1.45.44,2.11.28.01.19.37.98.29,1.09-.17.27-1.44.37-1.76.35-1.93-.11-2.56-1.4-2.44-3.18.12-1.7,1.41-2.41,3.01-2.3.2.01,1.15.18,1.2.38.04.16-.3.84-.3,1.06Z"/>
    </g>
  </g>
</svg>