<?xml version="1.0" encoding="UTF-8"?>
<svg id="Layer_2" data-name="Layer 2" xmlns="http://www.w3.org/2000/svg" viewBox="0 0 31.27 10.29">
  <defs>
    <style>
      .cls-1 {
        fill: #c3baba;
      }
    </style>
  </defs>
  <g id="Layer_1-2" data-name="Layer 1">
    <g>
      <path class="cls-1" d="M6.66,4.74h-2.61v-1.09h3.68c.03.15.03.31.04.47.12,2.31-1.56,3.95-3.86,3.86C.57,7.85-1.28,3.9,1.02,1.36c1.5-1.66,4.15-1.86,5.76-.26l-.77.77c-1.01-.97-2.62-1.03-3.72-.18-1.44,1.12-1.48,3.33-.11,4.52,1.51,1.31,4.26.71,4.46-1.46Z"/>
      <path class="cls-1" d="M24.29,3.1l-.02-.11h-1.06v.42c-.07.02-.08-.05-.13-.09-.81-.74-2.06-.56-2.84.13-1.06.93-1.2,2.53-.3,3.62.69.84,2.04,1.25,2.97.56.09-.06.18-.18.25-.23.02-.01.03-.02.05-.01.04.75-.08,1.57-.9,1.81-.73.21-1.34-.08-1.71-.71-.02-.03-.04-.12-.08-.12l-.96.4c.33.83,1.13,1.42,2.02,1.5,1.55.14,2.58-.82,2.69-2.34.11-1.57-.05-3.24.02-4.83ZM21.77,6.96c-1.7-.15-1.71-2.94,0-3.1,1.98-.19,2.02,3.28,0,3.1Z"/>
      <path class="cls-1" d="M10.67,2.84c-1.77.1-2.89,1.81-2.29,3.47.79,2.21,4.05,2.22,4.84.01.64-1.77-.66-3.58-2.55-3.48ZM12.18,5.91c-.32,1.13-1.78,1.45-2.51.5-.7-.9-.23-2.43.98-2.54,1.14-.11,1.82,1.01,1.53,2.04Z"/>
      <path class="cls-1" d="M16.23,2.84c-1.77.1-2.9,1.83-2.28,3.5.84,2.24,4.18,2.16,4.88-.14.53-1.75-.77-3.46-2.6-3.36ZM17.68,6.09c-.51,1.18-2.15,1.17-2.64-.02-.38-.92.12-2.11,1.17-2.21,1.22-.12,1.92,1.17,1.47,2.23Z"/>
      <path class="cls-1" d="M29.52,6.9c-.68.21-1.38-.06-1.69-.71l3.44-1.43c-.14-.37-.29-.73-.54-1.04-1.16-1.5-3.45-1.01-4.05.73-.64,1.84.71,3.72,2.69,3.51.74-.08,1.43-.5,1.84-1.12l-.87-.58c-.21.28-.47.53-.82.64ZM28.63,3.89c.47-.14,1.12,0,1.3.49l-2.29.95c-.03-.64.37-1.25.99-1.44Z"/>
      <rect class="cls-1" x="24.95" y=".29" width="1.1" height="7.53"/>
    </g>
  </g>
</svg>