<?xml version="1.0" encoding="UTF-8"?>
<svg id="Layer_2" data-name="Layer 2" xmlns="http://www.w3.org/2000/svg" viewBox="0 0 32.84 9.23">
  <defs>
    <style>
      .cls-1 {
        fill: #c3baba;
      }
    </style>
  </defs>
  <g id="Layer_1-2" data-name="Layer 1">
    <g>
      <path class="cls-1" d="M10.67.16s.06-.1.07-.15c.29-.05.58.05.84.18l-.03,1.13,1.19.09c.25.12.02.53-.22.53h-.97c.01.94-.15,1.98-.06,2.92.04.45.21,1.05.69.57.71-.72.26-1.96.91-2.85.41-.56,1.3-.85,1.66-.13.21.06.09-.26.29-.3.19.05.53.05.65.21.08.11-.04,2.34,0,2.75.04.33.22.84.63.51s.21-1.3.25-1.76c.07-.86.65-2.24,1.75-1.75.23.1.48.63.45.09.3-.12.53.04.81.12v2.67s.01.21.01.21c.21-.46,1.04-1.65.91-2.14-.08-.29-.32-.23-.16-.69.23-.68,1.09-.59.93.21.05.05,1.2-.31,1.39-.02.16.25-.16,1.25-.19,1.62s-.06,1.94.71,1.48c.39-.24.13-1.23.17-1.67.1-1.16.95-2.74,2.17-1.54.16.07.06-.22.09-.25,1.2-.15.76.79.75,1.54,0,.37-.06,1.77.25,1.95.41.23.82-.72.82-1v-2.54c.27,0,.59-.03.79.19l-.03,1.44c.17.03.11-.04.14-.14.11-.3.4-1.44.71-1.5.26-.05.73.12.78.41l.06,1.85c.16.01.1.01.12-.09.07-.4.4-1.87.66-2.1.19-.17.76.02.93.19.24.24.01,1.72.04,2.17.09,1.32.7,1.66,1,.19l.19-.04c.08.85-.37,1.88-1.36,1.34-.28-.16-.45-.7-.5-1.01-.02-.09-.08-.49-.08-.55v-1.19s.14-.16-.06-.22c-.37.89-.6,1.79-.64,2.76-1.35.35-.87-1.97-1.09-2.76-.34.44-.57,1.12-.65,1.67-.06.37,0,.91-.07,1.25-.03.19-.24.23-.4.22-.45-.03-.58-.18-.57-.62-.36.97-1.46.76-1.69-.19-.41.9-1.63,1.18-2.13.19-.29.7-1.06.85-1.57.25-.57-.68-.34-1.95-.16-2.76h-.75c-.16.73-.6,1.48-1.02,2.09-.09.14-.45.49-.48.59-.1.32.02,1.15-.01,1.56-.08.96-.56,2.17-1.75,1.87-1.12-.28-.88-1.38-.26-2.06.16-.18,1.2-1.02,1.24-1.11.04-.11.05-.37-.08-.42-.33.62-1.2.89-1.73.34-.06-.06-.2-.35-.22-.35-.13,0-.26.36-.42.46-.64.38-1.2.03-1.33-.65-.49.91-1.61,1.19-2.18.17-.08-.15-.05-.45-.24-.42-.12.89-1.17,1.56-1.75.59l-.32-1.02c-.21.73-.81,1.4-1.61,1.5-.41.05-1.73.03-1.35-.66.32-.56.77.14,1.09.09.39-.06.42-.56.33-.87-.05-.16-.71-.9-.82-.88s-.1.04-.15.11c-.47.56-1.07,2.4-2.05,2.22-.59-.11-.49-1.77-.48-2.23l.03-1.22c-.55.55-.87,1.32-1.08,2.06-.06.22-.26,1.27-.3,1.33-.12.17-.79.04-.79-.16v-3.77c0-.21.63-.02.75.03v2.01l.32-.84c.3-.59.64-1.52,1.48-1.25.2.07.49.27.51.5.01.49-.19,2.36.02,2.68.14.21.34-.06.46-.22s.86-1.44.89-1.56c.03-.15-.31-.38-.19-.82.13-.48.57-.79,1.07-.69.66.13-.19,1.14-.15,1.28.33.3,1.19.78,1.3,1.22.04.14,0,.28.02.43,0,.09-.05.18.09.16.29-.28.59-.77.64-1.18.05-.34.07-1.61.02-1.93-.01-.07-.02-.13-.1-.15l-.86-.02c-.24-.09-.03-.56.13-.61.21-.07.68.22.9-.04.04-.33-.05-.76,0-1.07ZM14.48,5.51c.43-.51.64-2.38.01-2.77-.35-.22-.72.15-.84.47-.19.5-.27,2.05.16,2.41.22.18.51.08.67-.11ZM17.72,5.64c.22.18.51.05.66-.15.38-.5.47-1.75.29-2.34-.21-.7-.8-.58-1.07,0-.24.54-.39,2.08.11,2.49ZM24.62,2.79c-.48.42-.56,2.26-.17,2.74s.79-.03.95-.42c.19-.47.25-1.51.08-1.99-.13-.37-.54-.61-.86-.33ZM18.56,6.89c-.34.34-1.36,1.42-.73,1.87.45.33.81-.17.92-.58.13-.5.01-1,.14-1.49l-.13-.06c-.1.06-.14.19-.21.26Z"/>
      <path class="cls-1" d="M1.98,6.76c-.13.12-.36.24-.54.21.43-2.11.18-4.31.25-6.46-.11-.12-.58.59-.62.67-.24.47-.39,1.09-.32,1.62.05.34.3.59.31.92C-.04,3.48-.2,2.5.2,1.56.52.8,1.68-.56,2.54.26c-.02,1.6.14,3.27.03,4.86-.04.53-.18,1.26-.59,1.64Z"/>
    </g>
  </g>
</svg>