<?xml version="1.0" encoding="UTF-8"?>
<svg id="Layer_2" data-name="Layer 2" xmlns="http://www.w3.org/2000/svg" viewBox="0 0 31.16 8.67">
  <defs>
    <style>
      .cls-1 {
        fill: #c3baba;
      }
    </style>
  </defs>
  <g id="Layer_1-2" data-name="Layer 1">
    <g>
      <path class="cls-1" d="M12.86,0v2.55l.31-.27c1.17-.71,2.47-.04,2.56,1.33v3.26s-1.66,0-1.66,0v-2.64c0-.06-.03-.2-.05-.26-.16-.57-.89-.57-1.1-.03-.03.08-.07.24-.07.32v2.61h-1.68V0h1.68Z"/>
      <path class="cls-1" d="M9.01,2.53v-.43h1.59l.02.02v4.74h-1.61v-.43s-.03.01-.05.03c-.29.32-.66.5-1.1.53-2.25.15-3.15-2.72-1.78-4.27.67-.77,1.86-1.02,2.71-.39l.22.19ZM7.87,3.54c-1.03.12-1.08,1.73,0,1.93,1.45.27,1.61-2.13,0-1.93Z"/>
      <polygon class="cls-1" points="1.83 2.1 2.94 4.87 4.04 2.1 5.82 2.1 3.11 8.67 1.3 8.67 2.03 6.92 0 2.1 1.83 2.1"/>
      <path class="cls-1" d="M18.33,2.01c1.7-.13,2.96,1.02,2.85,2.75-.12,1.86-2.25,2.78-3.82,1.94-2.12-1.14-1.45-4.5.97-4.69ZM18.6,3.54c-1.29.06-1.13,2.04.14,1.94,1.19-.1,1.12-2-.14-1.94Z"/>
      <path class="cls-1" d="M23.71,2.01c1.66-.13,2.95,1,2.85,2.7-.12,1.89-2.21,2.84-3.82,1.99-2.13-1.13-1.46-4.5.97-4.69ZM23.97,3.54c-1.19.04-1.19,1.85-.04,1.94,1.33.1,1.4-1.98.04-1.94Z"/>
      <polygon class="cls-1" points="31.16 0 29.38 4.31 27.38 4.31 29.16 0 31.16 0"/>
      <path class="cls-1" d="M27.77,4.74c.74-.08,1.35.56,1.23,1.3-.15.98-1.44,1.29-2.02.48-.5-.7-.07-1.69.78-1.78Z"/>
    </g>
  </g>
</svg>