<?xml version="1.0" encoding="UTF-8"?>
<svg id="Layer_2" data-name="Layer 2" xmlns="http://www.w3.org/2000/svg" viewBox="0 0 21.16 8.81">
  <defs>
    <style>
      .cls-1 {
        fill: #c3baba;
      }
    </style>
  </defs>
  <g id="Layer_1-2" data-name="Layer 1">
    <g>
      <path class="cls-1" d="M7.09,2.87h.8v4.26h-.8v-.45c-.26.25-.52.55-.92.51-.45-.04-.51-.5-.53-.87-.06-1.12.04-2.28,0-3.4l.03-.06h.76l.02.02v3.48s.05.09.08.1c.21.1.44-.21.55-.35v-3.26Z"/>
      <polygon class="cls-1" points=".88 1.45 1.47 3.65 2.06 1.45 2.94 1.45 1.89 4.79 1.89 7.14 1.05 7.14 1.05 4.81 0 1.45 .88 1.45"/>
      <path class="cls-1" d="M3.85,2.85c.87-.04,1.18.58,1.22,1.35.03.55.06,1.84-.1,2.32-.34.98-1.83.92-2.11-.1-.14-.5-.1-1.65-.08-2.2.03-.71.27-1.32,1.08-1.36ZM3.83,3.57c-.18.03-.25.25-.26.4,0,.09.02.16.02.23,0,.54,0,1.09,0,1.63,0,.17-.04.28.02.45.11.29.51.29.61,0,.06-.17.03-.28.02-.44,0-.54,0-1.09,0-1.63,0-.08.02-.15.02-.23-.01-.27-.14-.47-.44-.42Z"/>
      <g>
        <path class="cls-1" d="M21.14,3.4c-.02-.59-.04-1.28-.18-1.86-.37-1.45-1.35-1.41-2.63-1.47C16.82,0,15.27-.01,13.76,0c-1.07.01-2.21.02-3.28.11-1.44.12-1.74.94-1.87,2.25-.12,1.27-.12,2.81,0,4.08.11,1.11.32,1.98,1.56,2.19.63.11,1.27.1,1.91.12,2.15.07,4.29.08,6.44-.03.65-.03,1.31.01,1.84-.42.64-.51.71-1.58.76-2.35.06-.85.05-1.72.02-2.57ZM11.31,2.29v4.84h-.85V2.29h-.88v-.81h2.66v.81h-.93ZM14.36,7.14h-.81v-.45c-.26.3-.69.67-1.11.46-.32-.16-.3-.62-.33-.93v-3.29h.81v3.44s.06.11.09.12c.23.07.41-.2.54-.35v-3.21h.81v4.21ZM17.27,6.2c-.02.38-.1.87-.53.98-.4.1-.73-.16-.98-.44v.4h-.78V1.51l.02-.02h.73l.02.02v1.8c.25-.29.62-.56,1.02-.42.39.14.47.7.49,1.06.03.68.04,1.58,0,2.26ZM20.11,5.16h-1.53v.9c0,.07.06.26.11.32.09.12.32.14.44.06.06-.04.16-.19.16-.25v-.54h.81l-.02.51c-.11,1.32-1.97,1.41-2.27.11-.11-.5-.09-1.71-.04-2.25.09-.85.76-1.43,1.62-1.09.87.35.68,1.47.71,2.22Z"/>
        <path class="cls-1" d="M16.45,3.87c-.03-.2-.11-.32-.33-.31-.09,0-.34.11-.36.2v2.52c.01.09.22.19.31.21.11.01.23,0,.3-.08.08-.11.1-.34.11-.47.03-.55.03-1.29,0-1.84,0-.06-.01-.17-.02-.23Z"/>
        <path class="cls-1" d="M18.63,3.73s-.05.16-.05.2v.59h.71v-.62s-.04-.15-.05-.17c-.09-.23-.52-.23-.62,0Z"/>
      </g>
    </g>
  </g>
</svg>