<?xml version="1.0" encoding="UTF-8"?>
<svg id="Layer_2" data-name="Layer 2" xmlns="http://www.w3.org/2000/svg" viewBox="0 0 35.56 36.46">
  <defs>
    <style>
      .cls-1 {
        fill: none;
        stroke: #443f3f;
        stroke-miterlimit: 10;
        stroke-width: .5px;
      }
    </style>
  </defs>
  <g id="Layer_1-2" data-name="Layer 1">
    <g>
      <path class="cls-1" d="M17.63,13.85c1.3-.11,1.88,1.13,2.88,1.48s2.22-.04,3.04.55c1.06.76.73,2.21,1.37,3.18.54.81,1.75,1.3,1.89,2.37.16,1.21-.83,1.92-1,2.95s.47,2.24-.09,3.21c-.55.95-1.8.98-2.61,1.58-.87.64-1.04,1.97-2.14,2.41-1.17.47-2.09-.45-3.22-.44-1.08.02-1.98.87-3.09.46s-1.31-1.78-2.19-2.43c-.8-.6-2.06-.62-2.61-1.58s.09-2.19-.09-3.21-1.16-1.74-1-2.95c.14-1.08,1.34-1.55,1.89-2.37.64-.96.31-2.36,1.33-3.14.84-.64,2.1-.24,3.08-.59.87-.31,1.5-1.4,2.56-1.48ZM17.12,17.82c-3.44.37-5.39,4.34-3.74,7.37,2.07,3.81,7.81,3.33,9.16-.77,1.19-3.61-1.69-7-5.42-6.6Z"/>
      <path class="cls-1" d="M17.26.28c6.29-.64,6.85,8.85.78,9.15-5.93.3-6.5-8.57-.78-9.15Z"/>
      <path class="cls-1" d="M11.33,15.01c-.47.21-.85.79-1.04,1.27-.24.6-.31,1.67-.58,2.13-.2.35-1.12.98-1.45,1.41-.28.35-.46.78-.6,1.2l-7.16-.05c-.29-.13-.25-.34-.22-.62.58-4.71,6.61-7.69,10.8-5.55.06.03.31.15.27.21Z"/>
      <path class="cls-1" d="M27.93,21.02c-.14-.42-.32-.85-.6-1.2-.33-.43-1.25-1.06-1.45-1.41-.27-.46-.35-1.53-.58-2.13-.19-.48-.57-1.06-1.04-1.27-.09-.12,1.01-.5,1.12-.53,3.81-1.19,8.01.68,9.5,4.4.2.5.89,2.13-.02,2.15h-6.93Z"/>
      <path class="cls-1" d="M7.65,5.56c5.21-.28,5.48,7.67.35,7.83-5.08.16-5.43-7.57-.35-7.83Z"/>
      <path class="cls-1" d="M27.54,5.56c5.23-.22,5.43,7.71.27,7.83-5.06.13-5.34-7.62-.27-7.83Z"/>
      <path class="cls-1" d="M24.76,13.47c-.35.11-.75.27-1.08.43-.21.1-.72.49-.88.52-.11.02-1.11-.05-1.3-.06-1.32-.12-2-1.75-3.81-1.69-1.63.05-2.36,1.58-3.6,1.69-.27.02-1.02.09-1.24.07-.35-.02-1.49-.97-2.02-.95,3.41-4.4,10.53-4.41,13.94,0Z"/>
      <path class="cls-1" d="M19.92,32.91c2.07.16,2.93-1.39,3.93-2.86l1.94,4.14c-.08.13-.19.12-.33.11-.4-.01-2.29-.49-2.46-.41-.44.61-.74,1.31-1.14,1.94-.06.1-.22.4-.35.37l-1.58-3.3Z"/>
      <path class="cls-1" d="M15.66,32.84l-1.58,3.37c-.13.03-.29-.27-.35-.37-.41-.63-.71-1.33-1.14-1.94-.17-.08-2.06.39-2.46.41-.13,0-.24.01-.33-.11l1.94-4.14c.98,1.36,1.92,3.22,3.93,2.79Z"/>
      <path class="cls-1" d="M17.7,19.94c.63-.17.67,1.58,1.02,1.82.38.26,2.27-.25,2.06.52-.14.42-1.33.9-1.42,1.22-.16.53.58,1.51.39,1.93-.33.74-1.48-.75-1.92-.79-.41-.03-1.27,1.13-1.78.97-.61-.27.37-1.54.2-2.11-.1-.32-1.28-.8-1.42-1.22l.02-.2c.22-.55,1.72,0,2.07-.35.27-.27.37-1.67.79-1.79Z"/>
    </g>
  </g>
</svg>