<?xml version="1.0" encoding="UTF-8"?>
<svg id="Layer_2" data-name="Layer 2" xmlns="http://www.w3.org/2000/svg" viewBox="0 0 40.79 26.93">
  <defs>
    <style>
      .cls-1 {
        fill: none;
        stroke: #443f3f;
        stroke-miterlimit: 10;
        stroke-width: .5px;
      }
    </style>
  </defs>
  <g id="Layer_1-2" data-name="Layer 1">
    <path class="cls-1" d="M11.55,1.92c.46.42-.18,1.42-.3,1.94,1.37.44,2.78.66,4.23.58.55-.03,1.98-.21,2.46-.41s1.12-.93,1.73-1.23c3.52-1.73,6.34.95,9.87.89-.45-1.49-.83-1.59.72-2.19,2.47-.97,5.45-1.42,8.1-1.17.42.04,1.63.18,1.95.34.11.06.19.14.24.25v15.87c-.1.2-.26.24-.47.27-1.71.2-3.82-.15-5.57,0-.48.09-.63-1.13-.75-1.15-.96.32-1.81,1-2.82,1.15,1.43,1.92-.1,4.4-2.46,4.02,0,1.59-1.63,2.65-3.12,2.21-.17,1.79-2.04,2.68-3.64,1.96-.48,1.05-1.3,1.55-2.47,1.4-.84-.1-2.27-1.77-2.91-2.42-1.95-1.98-3.92-4.32-5.98-6.15-.96-.85-2.05-1.6-3.24-2.08-.2.02-.14.95-.74,1.05-1.76-.14-3.86.21-5.57,0-.27-.03-.44-.11-.51-.39l-.02-15.4c.04-.41.1-.53.49-.65C2.89-.08,6.71.33,8.88.93c.48.13,2.38.73,2.66.99ZM1.48,1.73v14.11h4.35L10.34,2.72c-2.07-.81-4.29-1.22-6.52-1.24l-2.33.25ZM39.37,1.73c-2.98-.52-6.06-.1-8.86.99l4.51,13.12h4.35V1.73ZM15.18,8.74v6.11c1.36-.21,2.96-.98,3.39-2.39.24-.79.07-1.49.48-2.31.27-.53,1.41-1.74,1.92-2.01.21-.11.45-.16.65-.01,2.2,2.08,4.25,4.44,6.47,6.48,1.1,1.02,1.6,1.69,3.22,1.08.66-.25,1.36-.67,2-.97l-3.3-9.78c-.97.02-1.93-.08-2.88-.28-2.46-.51-4.66-2.04-7.14-.61-.85.49-3.68,3.09-4.32,3.88-.14.17-.45.63-.49.82ZM16.33,5.58c-1.87.22-3.72.04-5.49-.58l-3.36,9.84c2.81,1.06,4.83,3.45,6.89,5.54,1.57,1.59,3.09,3.25,4.67,4.84.78.63,1.9-.16,1.41-1.08-.15-.28-1.19-1.31-1.49-1.63-.57-.6-1.83-1.62-2.22-2.21-.42-.64.12-1.23.78-.95l4.51,4.6c1.23,1,2.79-.44,1.81-1.72l-3.61-3.69c-.43-.57.17-1.32.77-.94,1.18,1.17,2.36,2.34,3.53,3.52.2.2.33.46.57.66,1.07.88,2.45.09,2.09-1.27-.07-.27-1.19-1.42-1.48-1.72-.59-.63-1.99-1.76-2.38-2.38-.41-.65.16-1.22.82-.9,1.16,1.17,2.32,2.33,3.48,3.49.14.14.22.32.36.46,1.2,1.12,2.86-.16,2-1.51-.5-.78-1.33-1.19-2.04-1.73l-6.69-6.68c-.1-.02-.71.61-.81.73-.71.89-.42,1.38-.67,2.37-.49,1.98-2.69,3.35-4.66,3.46-.62.04-1.13.12-1.2-.61-.2-2.14.14-4.61.02-6.79.2-1.41,1.48-2.13,2.36-3.1Z"/>
  </g>
</svg>