<?xml version="1.0" encoding="UTF-8"?>
<svg id="Layer_2" data-name="Layer 2" xmlns="http://www.w3.org/2000/svg" viewBox="0 0 46.28 25.92">
  <defs>
    <style>
      .cls-1 {
        fill: none;
        stroke: #443f3f;
        stroke-miterlimit: 10;
        stroke-width: .5px;
      }
    </style>
  </defs>
  <g id="Layer_1-2" data-name="Layer 1">
    <path class="cls-1" d="M14,22.14H1.52c-.47-.08-1.04-.18-1.16-.72-.18-.76-.1-3.95-.03-4.86.24-2.93,2.14-5.42,4.76-6.65C2.2,6.87,3.75,1.65,7.74.51c5.69-1.64,10.04,4.92,6.14,9.4,1.74.89,3.3,2.2,4.01,4.08l.88-.44c-3.78-4.28.13-10.76,5.67-9.56,4.35.94,6.09,6.25,3.11,9.56l.88.44c.71-1.87,2.27-3.18,4.01-4.08-2.94-3.08-1.24-8.47,2.83-9.46,5.69-1.39,9.8,5.05,5.95,9.46,2.62,1.23,4.52,3.72,4.76,6.65.06.69.09,4.65-.09,5.05-.17.36-.73.47-1.1.53h-12.48s0,2.82,0,2.82c0,.06-.35.52-.43.57l-17.07.12c-.27.09-.81-.54-.81-.7v-2.82ZM8.58,2.22c-4.01.67-4.1,6.98.03,7.69,6.4,1.11,6.45-8.78-.03-7.69ZM35.92,2.22c-4.1.69-4.06,7.21.24,7.73,6.28.76,6.11-8.8-.24-7.73ZM22.75,5.74c-5.19.5-4.53,8.46.96,7.85,4.98-.55,4.32-8.36-.96-7.85ZM14,20.26c.18-2.02,1.07-3.67,2.36-5.18-.41-1.47-2.96-3.97-4.53-3.7-1.26.22-1.69.65-3.28.46-1.38-.16-1.28-.81-2.88-.09-1.55.69-3.47,2.94-3.47,4.69v3.83h11.79ZM44.11,20.26v-3.83c0-1.75-1.91-3.99-3.47-4.69s-1.5-.07-2.88.09c-1.61.19-2.17-.32-3.41-.47-1.55-.18-3.98,2.25-4.4,3.7,1.29,1.51,2.19,3.17,2.36,5.18h11.79ZM30.43,23.77v-3.7c0-1.7-1.8-3.89-3.28-4.62-1.73-.86-1.77-.13-3.32.03-.32.03-.68.04-.99.02-1.67-.08-1.89-.94-3.68-.05-1.47.74-3.28,2.93-3.28,4.62v3.7h14.55Z"/>
  </g>
</svg>