<?xml version="1.0" encoding="UTF-8"?>
<svg id="Layer_2" data-name="Layer 2" xmlns="http://www.w3.org/2000/svg" viewBox="0 0 33.42 33.42">
  <defs>
    <style>
      .cls-1 {
        fill: none;
        stroke: #443f3f;
        stroke-miterlimit: 10;
        stroke-width: .5px;
      }
    </style>
  </defs>
  <g id="Layer_1-2" data-name="Layer 1">
    <g>
      <path class="cls-1" d="M33.17,10.09v1.61l-.24,1.4c-.35,1.58-1.04,3.09-2.06,4.35l2.3,2.8v.51c-.2.38-.4.64-.87.71-3.4-.09-6.82.11-10.23,0-.23,0-.44-.09-.67-.07.63,5.37-3.12,10.51-8.41,11.55l-1.36.21H.96c-.54-.26-.85-.71-.65-1.32.16-.4,2.25-2.52,2.24-2.7C.4,26.47-.28,22.86.69,19.56c1.43-4.88,6.25-8.11,11.33-7.54C11.26,5.01,17.39-.77,24.37.4c4.67.78,8.44,4.83,8.73,9.59l.06.1ZM30.08,19.54c-.55-.87-2.02-1.57-1.21-2.72.72-1.03,1.29-1.52,1.77-2.79,2.95-7.74-5.5-14.88-12.58-10.59-7.33,4.45-4.39,15.57,4.01,16.1h8.01ZM12.46,14.02c-5.84-1.03-10.95,3.81-10.2,9.72.16,1.29.72,2.69,1.46,3.75.3.43,1.09,1.17,1.11,1.66.02.67-1.13,1.53-1.48,2.09h8.01c5.19-.3,9.02-5.16,8.06-10.28-3.26-.96-5.99-3.67-6.94-6.94Z"/>
      <path class="cls-1" d="M23.53,11.51c-.07.11.03,1.75,0,2.08-.14,1.22-1.77,1.17-1.92.06-.06-.44-.06-2.96.04-3.29.03-.09.18-.34.26-.4.49-.44,1.27-.07,1.95-.8,1.45-1.57-.56-3.88-2.34-2.66-.8.55-.54,1.15-.8,1.84-.34.88-1.84.69-1.87-.4-.08-2.89,3.29-4.63,5.69-3.13,2.73,1.7,2.06,5.87-1,6.71Z"/>
      <path class="cls-1" d="M22.35,15.5c1.28-.26,1.63,1.65.42,1.9-1.28.26-1.63-1.65-.42-1.9Z"/>
      <path class="cls-1" d="M7.44,19.68h6.8c1.08.25,1.07,1.65,0,1.91h-6.74c-1.05-.25-1.09-1.6-.05-1.91Z"/>
      <path class="cls-1" d="M7.44,23.54h6.8c1.08.25,1.07,1.65,0,1.91h-6.74c-1.05-.25-1.09-1.6-.05-1.91Z"/>
    </g>
  </g>
</svg>